<svg width="1349" height="651" xmlns="http://www.w3.org/2000/svg"><g><path d="M-38,-17L-51,206L-42,111Z" fill="#f7f6fd" stroke="#f7f6fd"/><path d="M-38,-17L-42,111L-2,50Z" fill="#f8f7fc" stroke="#f8f7fc"/><path d="M-38,-17L-2,50L27,10Z" fill="#f9f8fb" stroke="#f9f8fb"/><path d="M-38,-17L27,10L26,-8Z" fill="#f8f7fb" stroke="#f8f7fb"/><path d="M-38,-17L26,-8L118,-39Z" fill="#f7f6fa" stroke="#f7f6fa"/><path d="M-38,-17L118,-39L167,-54Z" fill="#f4f3f9" stroke="#f4f3f9"/><path d="M26,-8L27,10L71,27Z" fill="#f6f5fa" stroke="#f6f5fa"/><path d="M26,-8L71,27L118,-39Z" fill="#f5f4f9" stroke="#f5f4f9"/><path d="M118,-39L71,27L159,1Z" fill="#f2f1f8" stroke="#f2f1f8"/><path d="M118,-39L159,1L167,-54Z" fill="#f0eff7" stroke="#f0eff7"/><path d="M167,-54L159,1L220,-43Z" fill="#eeedf6" stroke="#eeedf6"/><path d="M167,-54L220,-43L270,-55Z" fill="#ecebf4" stroke="#ecebf4"/><path d="M167,-54L270,-55L649,-59Z" fill="#e4e3f0" stroke="#e4e3f0"/><path d="M220,-43L159,1L197,21Z" fill="#eeedf5" stroke="#eeedf5"/><path d="M220,-43L197,21L283,16Z" fill="#ebeaf4" stroke="#ebeaf4"/><path d="M220,-43L283,16L270,-55Z" fill="#eae9f3" stroke="#eae9f3"/><path d="M270,-55L283,16L347,-35Z" fill="#e7e6f2" stroke="#e7e6f2"/><path d="M270,-55L347,-35L435,-34Z" fill="#e4e3f0" stroke="#e4e3f0"/><path d="M270,-55L435,-34L649,-59Z" fill="#dedcec" stroke="#dedcec"/><path d="M347,-35L283,16L348,7Z" fill="#e6e5f1" stroke="#e6e5f1"/><path d="M347,-35L348,7L389,-6Z" fill="#e4e3f0" stroke="#e4e3f0"/><path d="M347,-35L389,-6L435,-34Z" fill="#e2e1ef" stroke="#e2e1ef"/><path d="M389,-6L348,7L407,56Z" fill="#e1e0ef" stroke="#e1e0ef"/><path d="M389,-6L407,56L425,3Z" fill="#e0deee" stroke="#e0deee"/><path d="M389,-6L425,3L435,-34Z" fill="#e0dfee" stroke="#e0dfee"/><path d="M435,-34L425,3L486,-13Z" fill="#dedcec" stroke="#dedcec"/><path d="M435,-34L486,-13L583,-30Z" fill="#dad9ea" stroke="#dad9ea"/><path d="M435,-34L583,-30L649,-59Z" fill="#d7d5e8" stroke="#d7d5e8"/><path d="M486,-13L425,3L481,15Z" fill="#dddbec" stroke="#dddbec"/><path d="M486,-13L481,15L577,16Z" fill="#d9d7ea" stroke="#d9d7ea"/><path d="M486,-13L577,16L583,-30Z" fill="#d7d6e9" stroke="#d7d6e9"/><path d="M583,-30L577,16L642,50Z" fill="#d3d1e7" stroke="#d3d1e7"/><path d="M583,-30L642,50L649,-59Z" fill="#d2d0e6" stroke="#d2d0e6"/><path d="M649,-59L642,50L715,7Z" fill="#cfcde4" stroke="#cfcde4"/><path d="M649,-59L715,7L706,-37Z" fill="#cecbe3" stroke="#cecbe3"/><path d="M649,-59L706,-37L879,-42Z" fill="#c9c5e0" stroke="#c9c5e0"/><path d="M649,-59L879,-42L955,-43Z" fill="#c3bcdb" stroke="#c3bcdb"/><path d="M649,-59L955,-43L1197,-50Z" fill="#bbb1d6" stroke="#bbb1d6"/><path d="M706,-37L715,7L751,-21Z" fill="#cbc7e1" stroke="#cbc7e1"/><path d="M706,-37L751,-21L825,-22Z" fill="#c8c3df" stroke="#c8c3df"/><path d="M706,-37L825,-22L879,-42Z" fill="#c5bfdd" stroke="#c5bfdd"/><path d="M751,-21L715,7L753,16Z" fill="#cac6e0" stroke="#cac6e0"/><path d="M751,-21L753,16L802,22Z" fill="#c7c2df" stroke="#c7c2df"/><path d="M751,-21L802,22L825,-22Z" fill="#c6c0dd" stroke="#c6c0dd"/><path d="M825,-22L802,22L892,9Z" fill="#c2bbdb" stroke="#c2bbdb"/><path d="M825,-22L892,9L879,-42Z" fill="#c0b8d9" stroke="#c0b8d9"/><path d="M879,-42L892,9L955,-43Z" fill="#bdb3d7" stroke="#bdb3d7"/><path d="M955,-43L892,9L903,28Z" fill="#bcb3d6" stroke="#bcb3d6"/><path d="M955,-43L903,28L976,17Z" fill="#bab0d5" stroke="#bab0d5"/><path d="M955,-43L976,17L981,-17Z" fill="#b8add4" stroke="#b8add4"/><path d="M955,-43L981,-17L1066,-42Z" fill="#b6a9d2" stroke="#b6a9d2"/><path d="M955,-43L1066,-42L1197,-50Z" fill="#b0a2ce" stroke="#b0a2ce"/><path d="M981,-17L976,17L1035,40Z" fill="#b5a9d2" stroke="#b5a9d2"/><path d="M981,-17L1035,40L1066,-42Z" fill="#b4a7d0" stroke="#b4a7d0"/><path d="M1066,-42L1035,40L1081,-19Z" fill="#b1a3cf" stroke="#b1a3cf"/><path d="M1066,-42L1081,-19L1197,-50Z" fill="#ad9dcc" stroke="#ad9dcc"/><path d="M1081,-19L1035,40L1099,15Z" fill="#b0a1ce" stroke="#b0a1ce"/><path d="M1081,-19L1099,15L1197,-50Z" fill="#ac9ccb" stroke="#ac9ccb"/><path d="M1197,-50L1099,15L1193,26Z" fill="#a998c9" stroke="#a998c9"/><path d="M1197,-50L1193,26L1220,-9Z" fill="#a694c7" stroke="#a694c7"/><path d="M1197,-50L1220,-9L1320,-35Z" fill="#a38fc4" stroke="#a38fc4"/><path d="M1220,-9L1193,26L1243,41Z" fill="#a491c6" stroke="#a491c6"/><path d="M1220,-9L1243,41L1318,5Z" fill="#a18dc4" stroke="#a18dc4"/><path d="M1220,-9L1318,5L1322,-14Z" fill="#a08ac2" stroke="#a08ac2"/><path d="M1220,-9L1322,-14L1320,-35Z" fill="#a08ac2" stroke="#a08ac2"/><path d="M1320,-35L1322,-14L1380,-24Z" fill="#9b85bf" stroke="#9b85bf"/><path d="M1322,-14L1318,5L1331,28Z" fill="#9c86c0" stroke="#9c86c0"/><path d="M1322,-14L1331,28L1380,-24Z" fill="#9b84bf" stroke="#9b84bf"/><path d="M1380,-24L1331,28L1393,12Z" fill="#9982be" stroke="#9982be"/><path d="M-2,50L-42,111L59,94Z" fill="#f5f3fb" stroke="#f5f3fb"/><path d="M-2,50L59,94L71,27Z" fill="#f4f3fa" stroke="#f4f3fa"/><path d="M-2,50L71,27L27,10Z" fill="#f6f4fa" stroke="#f6f4fa"/><path d="M71,27L59,94L82,95Z" fill="#f2f0f9" stroke="#f2f0f9"/><path d="M71,27L82,95L159,1Z" fill="#f1f0f8" stroke="#f1f0f8"/><path d="M159,1L82,95L167,114Z" fill="#eeedf7" stroke="#eeedf7"/><path d="M159,1L167,114L209,67Z" fill="#eceaf6" stroke="#eceaf6"/><path d="M159,1L209,67L197,21Z" fill="#edebf5" stroke="#edebf5"/><path d="M197,21L209,67L283,16Z" fill="#eae9f4" stroke="#eae9f4"/><path d="M283,16L209,67L272,95Z" fill="#e8e7f3" stroke="#e8e7f3"/><path d="M283,16L272,95L323,120Z" fill="#e5e3f2" stroke="#e5e3f2"/><path d="M283,16L323,120L348,7Z" fill="#e4e3f1" stroke="#e4e3f1"/><path d="M348,7L323,120L390,98Z" fill="#e1e0f0" stroke="#e1e0f0"/><path d="M348,7L390,98L407,56Z" fill="#e0dfef" stroke="#e0dfef"/><path d="M407,56L390,98L449,109Z" fill="#dddbee" stroke="#dddbee"/><path d="M407,56L449,109L481,15Z" fill="#dcdaed" stroke="#dcdaed"/><path d="M407,56L481,15L425,3Z" fill="#dedced" stroke="#dedced"/><path d="M481,15L449,109L520,111Z" fill="#d9d7eb" stroke="#d9d7eb"/><path d="M481,15L520,111L577,16Z" fill="#d7d5e9" stroke="#d7d5e9"/><path d="M577,16L520,111L577,118Z" fill="#d3d1e8" stroke="#d3d1e8"/><path d="M577,16L577,118L612,82Z" fill="#d1cfe7" stroke="#d1cfe7"/><path d="M577,16L612,82L642,50Z" fill="#d1cfe6" stroke="#d1cfe6"/><path d="M642,50L612,82L695,60Z" fill="#cecbe5" stroke="#cecbe5"/><path d="M642,50L695,60L715,7Z" fill="#cdcae3" stroke="#cdcae3"/><path d="M715,7L695,60L753,16Z" fill="#cac6e1" stroke="#cac6e1"/><path d="M753,16L695,60L720,118Z" fill="#c9c5e1" stroke="#c9c5e1"/><path d="M753,16L720,118L802,22Z" fill="#c6c1df" stroke="#c6c1df"/><path d="M802,22L720,118L839,97Z" fill="#c3bdde" stroke="#c3bdde"/><path d="M802,22L839,97L861,87Z" fill="#c0b8db" stroke="#c0b8db"/><path d="M802,22L861,87L892,9Z" fill="#c0b8da" stroke="#c0b8da"/><path d="M892,9L861,87L903,28Z" fill="#bdb4d8" stroke="#bdb4d8"/><path d="M903,28L861,87L936,92Z" fill="#bab1d7" stroke="#bab1d7"/><path d="M903,28L936,92L976,17Z" fill="#b8aed5" stroke="#b8aed5"/><path d="M976,17L936,92L1009,93Z" fill="#b5a9d3" stroke="#b5a9d3"/><path d="M976,17L1009,93L1035,40Z" fill="#b3a6d2" stroke="#b3a6d2"/><path d="M1035,40L1009,93L1065,71Z" fill="#b0a3d0" stroke="#b0a3d0"/><path d="M1035,40L1065,71L1099,15Z" fill="#afa0ce" stroke="#afa0ce"/><path d="M1099,15L1065,71L1096,100Z" fill="#ac9dcd" stroke="#ac9dcd"/><path d="M1099,15L1096,100L1141,87Z" fill="#ab9acc" stroke="#ab9acc"/><path d="M1099,15L1141,87L1193,26Z" fill="#a998ca" stroke="#a998ca"/><path d="M1193,26L1141,87L1232,87Z" fill="#a592c8" stroke="#a592c8"/><path d="M1193,26L1232,87L1243,41Z" fill="#a28fc6" stroke="#a28fc6"/><path d="M1243,41L1232,87L1315,82Z" fill="#9e8ac3" stroke="#9e8ac3"/><path d="M1243,41L1315,82L1331,28Z" fill="#9d87c2" stroke="#9d87c2"/><path d="M1243,41L1331,28L1318,5Z" fill="#9e88c2" stroke="#9e88c2"/><path d="M1331,28L1315,82L1329,101Z" fill="#9a83c0" stroke="#9a83c0"/><path d="M1331,28L1329,101L1393,12Z" fill="#9982bf" stroke="#9982bf"/><path d="M1393,12L1329,101L1426,111Z" fill="#957dbd" stroke="#957dbd"/><path d="M-42,111L-51,206L-39,180Z" fill="#f4f2fd" stroke="#f4f2fd"/><path d="M-42,111L-39,180L58,121Z" fill="#f4f2fb" stroke="#f4f2fb"/><path d="M-42,111L58,121L59,94Z" fill="#f3f1fa" stroke="#f3f1fa"/><path d="M59,94L58,121L82,95Z" fill="#f1eff9" stroke="#f1eff9"/><path d="M82,95L58,121L86,131Z" fill="#f0eef9" stroke="#f0eef9"/><path d="M82,95L86,131L167,114Z" fill="#eeecf8" stroke="#eeecf8"/><path d="M167,114L86,131L153,179Z" fill="#ebe9f7" stroke="#ebe9f7"/><path d="M167,114L153,179L237,126Z" fill="#e9e7f5" stroke="#e9e7f5"/><path d="M167,114L237,126L209,67Z" fill="#e9e7f5" stroke="#e9e7f5"/><path d="M209,67L237,126L272,95Z" fill="#e7e5f4" stroke="#e7e5f4"/><path d="M272,95L237,126L288,176Z" fill="#e4e2f3" stroke="#e4e2f3"/><path d="M272,95L288,176L323,120Z" fill="#e3e1f2" stroke="#e3e1f2"/><path d="M323,120L288,176L347,134Z" fill="#e1dff1" stroke="#e1dff1"/><path d="M323,120L347,134L390,98Z" fill="#e0def0" stroke="#e0def0"/><path d="M390,98L347,134L398,145Z" fill="#dedbef" stroke="#dedbef"/><path d="M390,98L398,145L449,109Z" fill="#dcdaee" stroke="#dcdaee"/><path d="M449,109L398,145L461,165Z" fill="#d9d7ed" stroke="#d9d7ed"/><path d="M449,109L461,165L511,155Z" fill="#d7d4eb" stroke="#d7d4eb"/><path d="M449,109L511,155L520,111Z" fill="#d6d3eb" stroke="#d6d3eb"/><path d="M520,111L511,155L577,118Z" fill="#d3d0e9" stroke="#d3d0e9"/><path d="M577,118L511,155L594,158Z" fill="#d1cee8" stroke="#d1cee8"/><path d="M577,118L594,158L618,157Z" fill="#cecce7" stroke="#cecce7"/><path d="M577,118L618,157L612,82Z" fill="#cfcce7" stroke="#cfcce7"/><path d="M612,82L618,157L720,118Z" fill="#cbc9e5" stroke="#cbc9e5"/><path d="M612,82L720,118L695,60Z" fill="#cbc9e4" stroke="#cbc9e4"/><path d="M720,118L618,157L704,176Z" fill="#c8c5e3" stroke="#c8c5e3"/><path d="M720,118L704,176L772,174Z" fill="#c4c0e1" stroke="#c4c0e1"/><path d="M720,118L772,174L801,169Z" fill="#c2bcdf" stroke="#c2bcdf"/><path d="M720,118L801,169L839,97Z" fill="#c1bbde" stroke="#c1bbde"/><path d="M839,97L801,169L898,141Z" fill="#bcb4da" stroke="#bcb4da"/><path d="M839,97L898,141L861,87Z" fill="#bbb3d9" stroke="#bbb3d9"/><path d="M861,87L898,141L936,92Z" fill="#b9b0d7" stroke="#b9b0d7"/><path d="M936,92L898,141L915,147Z" fill="#b7add6" stroke="#b7add6"/><path d="M936,92L915,147L973,146Z" fill="#b5aad5" stroke="#b5aad5"/><path d="M936,92L973,146L1009,93Z" fill="#b3a7d3" stroke="#b3a7d3"/><path d="M1009,93L973,146L1022,162Z" fill="#b0a3d2" stroke="#b0a3d2"/><path d="M1009,93L1022,162L1096,100Z" fill="#ae9fd0" stroke="#ae9fd0"/><path d="M1009,93L1096,100L1065,71Z" fill="#ae9fcf" stroke="#ae9fcf"/><path d="M1096,100L1022,162L1059,183Z" fill="#ab9ccf" stroke="#ab9ccf"/><path d="M1096,100L1059,183L1113,179Z" fill="#a999cd" stroke="#a999cd"/><path d="M1096,100L1113,179L1156,162Z" fill="#a695cb" stroke="#a695cb"/><path d="M1096,100L1156,162L1141,87Z" fill="#a796cb" stroke="#a796cb"/><path d="M1141,87L1156,162L1232,87Z" fill="#a491c8" stroke="#a491c8"/><path d="M1232,87L1156,162L1246,122Z" fill="#a08dc6" stroke="#a08dc6"/><path d="M1232,87L1246,122L1315,82Z" fill="#9d88c3" stroke="#9d88c3"/><path d="M1315,82L1246,122L1329,101Z" fill="#9b85c2" stroke="#9b85c2"/><path d="M1329,101L1246,122L1270,172Z" fill="#9a85c2" stroke="#9a85c2"/><path d="M1329,101L1270,172L1373,176Z" fill="#977fc0" stroke="#977fc0"/><path d="M1329,101L1373,176L1406,136Z" fill="#947bbe" stroke="#947bbe"/><path d="M1329,101L1406,136L1426,111Z" fill="#937abd" stroke="#937abd"/><path d="M1426,111L1406,136L1415,182Z" fill="#9079bb" stroke="#9079bb"/><path d="M1426,111L1415,182L1429,493Z" fill="#7e67b6" stroke="#7e67b6"/><path d="M-39,180L-51,206L-4,245Z" fill="#eceafa" stroke="#eceafa"/><path d="M-39,180L-4,245L36,211Z" fill="#eae8f9" stroke="#eae8f9"/><path d="M-39,180L36,211L58,121Z" fill="#f0eefa" stroke="#f0eefa"/><path d="M58,121L36,211L68,194Z" fill="#edebf9" stroke="#edebf9"/><path d="M58,121L68,194L86,131Z" fill="#efedf9" stroke="#efedf9"/><path d="M86,131L68,194L153,179Z" fill="#ebe9f8" stroke="#ebe9f8"/><path d="M153,179L68,194L158,232Z" fill="#e4e2f5" stroke="#e4e2f5"/><path d="M153,179L158,232L203,226Z" fill="#e0def3" stroke="#e0def3"/><path d="M153,179L203,226L237,126Z" fill="#e4e2f5" stroke="#e4e2f5"/><path d="M237,126L203,226L288,176Z" fill="#e2e0f3" stroke="#e2e0f3"/><path d="M288,176L203,226L291,189Z" fill="#dedbf2" stroke="#dedbf2"/><path d="M288,176L291,189L339,210Z" fill="#dcdaf0" stroke="#dcdaf0"/><path d="M288,176L339,210L347,134Z" fill="#dddbf1" stroke="#dddbf1"/><path d="M347,134L339,210L398,145Z" fill="#dddbf0" stroke="#dddbf0"/><path d="M398,145L339,210L418,202Z" fill="#d8d5ee" stroke="#d8d5ee"/><path d="M398,145L418,202L461,165Z" fill="#d7d5ed" stroke="#d7d5ed"/><path d="M461,165L418,202L460,210Z" fill="#d2d0eb" stroke="#d2d0eb"/><path d="M461,165L460,210L510,201Z" fill="#d0ceea" stroke="#d0ceea"/><path d="M461,165L510,201L511,155Z" fill="#d2d0ea" stroke="#d2d0ea"/><path d="M511,155L510,201L565,203Z" fill="#cecbe8" stroke="#cecbe8"/><path d="M511,155L565,203L594,158Z" fill="#cfcce8" stroke="#cfcce8"/><path d="M594,158L565,203L610,198Z" fill="#cac7e6" stroke="#cac7e6"/><path d="M594,158L610,198L618,157Z" fill="#cbc8e6" stroke="#cbc8e6"/><path d="M618,157L610,198L675,195Z" fill="#c7c5e4" stroke="#c7c5e4"/><path d="M618,157L675,195L704,176Z" fill="#c7c3e4" stroke="#c7c3e4"/><path d="M704,176L675,195L734,298Z" fill="#bcb8df" stroke="#bcb8df"/><path d="M704,176L734,298L777,193Z" fill="#b9b4dd" stroke="#b9b4dd"/><path d="M704,176L777,193L772,174Z" fill="#bfbadf" stroke="#bfbadf"/><path d="M772,174L777,193L783,189Z" fill="#bdb6dd" stroke="#bdb6dd"/><path d="M772,174L783,189L801,169Z" fill="#bdb7dd" stroke="#bdb7dd"/><path d="M801,169L783,189L842,227Z" fill="#b8b1db" stroke="#b8b1db"/><path d="M801,169L842,227L898,141Z" fill="#b8b0d9" stroke="#b8b0d9"/><path d="M898,141L842,227L915,197Z" fill="#b4aad7" stroke="#b4aad7"/><path d="M898,141L915,197L915,147Z" fill="#b6acd7" stroke="#b6acd7"/><path d="M915,147L915,197L973,146Z" fill="#b4a9d5" stroke="#b4a9d5"/><path d="M973,146L915,197L993,199Z" fill="#afa3d3" stroke="#afa3d3"/><path d="M973,146L993,199L1022,162Z" fill="#aea1d2" stroke="#aea1d2"/><path d="M1022,162L993,199L1059,183Z" fill="#aa9cd0" stroke="#aa9cd0"/><path d="M1113,179L1059,183L1115,208Z" fill="#a393cb" stroke="#a393cb"/><path d="M1113,179L1115,208L1156,162Z" fill="#a291ca" stroke="#a291ca"/><path d="M1156,162L1115,208L1143,229Z" fill="#9f8dc8" stroke="#9f8dc8"/><path d="M1156,162L1143,229L1214,231Z" fill="#9a88c7" stroke="#9a88c7"/><path d="M1156,162L1214,231L1270,172Z" fill="#9b86c5" stroke="#9b86c5"/><path d="M1156,162L1270,172L1246,122Z" fill="#9e8ac6" stroke="#9e8ac6"/><path d="M1270,172L1214,231L1280,225Z" fill="#947ec1" stroke="#947ec1"/><path d="M1270,172L1280,225L1373,176Z" fill="#937cc0" stroke="#937cc0"/><path d="M1373,176L1280,225L1378,201Z" fill="#8e76bd" stroke="#8e76bd"/><path d="M1373,176L1378,201L1415,182Z" fill="#8d74bc" stroke="#8d74bc"/><path d="M1373,176L1415,182L1406,136Z" fill="#9078bc" stroke="#9078bc"/><path d="M-51,206L-46,689L-44,445Z" fill="#c3b6e4" stroke="#c3b6e4"/><path d="M-51,206L-44,445L-5,306Z" fill="#dad7f5" stroke="#dad7f5"/><path d="M-51,206L-5,306L-4,245Z" fill="#e4e2f7" stroke="#e4e2f7"/><path d="M36,211L-4,245L4,287Z" fill="#e4e1f7" stroke="#e4e1f7"/><path d="M36,211L4,287L97,278Z" fill="#e0ddf5" stroke="#e0ddf5"/><path d="M36,211L97,278L68,194Z" fill="#e3e1f6" stroke="#e3e1f6"/><path d="M68,194L97,278L158,232Z" fill="#e0def4" stroke="#e0def4"/><path d="M158,232L97,278L158,276Z" fill="#dad7f2" stroke="#dad7f2"/><path d="M158,232L158,276L212,262Z" fill="#d9d6f1" stroke="#d9d6f1"/><path d="M158,232L212,262L203,226Z" fill="#dad8f1" stroke="#dad8f1"/><path d="M203,226L212,262L285,254Z" fill="#d7d4f0" stroke="#d7d4f0"/><path d="M203,226L285,254L291,189Z" fill="#d9d7f0" stroke="#d9d7f0"/><path d="M291,189L285,254L339,210Z" fill="#d8d5ef" stroke="#d8d5ef"/><path d="M339,210L285,254L340,255Z" fill="#d3d1ed" stroke="#d3d1ed"/><path d="M339,210L340,255L375,278Z" fill="#d0cdec" stroke="#d0cdec"/><path d="M339,210L375,278L418,202Z" fill="#d1ceec" stroke="#d1ceec"/><path d="M418,202L375,278L435,304Z" fill="#c9c7e9" stroke="#c9c7e9"/><path d="M418,202L435,304L460,210Z" fill="#ccc9e9" stroke="#ccc9e9"/><path d="M460,210L435,304L461,300Z" fill="#c5c2e7" stroke="#c5c2e7"/><path d="M460,210L461,300L493,266Z" fill="#c6c3e7" stroke="#c6c3e7"/><path d="M460,210L493,266L510,201Z" fill="#cac7e8" stroke="#cac7e8"/><path d="M510,201L493,266L576,262Z" fill="#c5c2e5" stroke="#c5c2e5"/><path d="M510,201L576,262L565,203Z" fill="#c7c4e6" stroke="#c7c4e6"/><path d="M565,203L576,262L610,198Z" fill="#c5c2e4" stroke="#c5c2e4"/><path d="M610,198L576,262L661,258Z" fill="#c0bce2" stroke="#c0bce2"/><path d="M610,198L661,258L675,195Z" fill="#c1bee2" stroke="#c1bee2"/><path d="M675,195L661,258L734,298Z" fill="#b9b5de" stroke="#b9b5de"/><path d="M777,193L734,298L808,278Z" fill="#b1abda" stroke="#b1abda"/><path d="M777,193L808,278L842,227Z" fill="#b2abd9" stroke="#b2abd9"/><path d="M777,193L842,227L783,189Z" fill="#b8b1db" stroke="#b8b1db"/><path d="M842,227L808,278L859,313Z" fill="#aaa1d5" stroke="#aaa1d5"/><path d="M842,227L859,313L898,272Z" fill="#a79ed4" stroke="#a79ed4"/><path d="M842,227L898,272L915,197Z" fill="#ada2d5" stroke="#ada2d5"/><path d="M915,197L898,272L958,288Z" fill="#a69bd2" stroke="#a69bd2"/><path d="M915,197L958,288L993,199Z" fill="#a89cd1" stroke="#a89cd1"/><path d="M993,199L958,288L976,293Z" fill="#a194ce" stroke="#a194ce"/><path d="M993,199L976,293L1079,298Z" fill="#9d8fcc" stroke="#9d8fcc"/><path d="M993,199L1079,298L1059,183Z" fill="#a192cc" stroke="#a192cc"/><path d="M1059,183L1079,298L1115,208Z" fill="#9e8dca" stroke="#9e8dca"/><path d="M1115,208L1079,298L1110,290Z" fill="#9686c7" stroke="#9686c7"/><path d="M1115,208L1110,290L1143,229Z" fill="#9987c7" stroke="#9987c7"/><path d="M1143,229L1110,290L1173,269Z" fill="#9482c5" stroke="#9482c5"/><path d="M1143,229L1173,269L1214,231Z" fill="#9481c4" stroke="#9481c4"/><path d="M1214,231L1173,269L1252,279Z" fill="#8f7ac1" stroke="#8f7ac1"/><path d="M1214,231L1252,279L1280,225Z" fill="#8e79c0" stroke="#8e79c0"/><path d="M1280,225L1252,279L1311,273Z" fill="#8973be" stroke="#8973be"/><path d="M1280,225L1311,273L1378,201Z" fill="#8b73bd" stroke="#8b73bd"/><path d="M1378,201L1311,273L1345,284Z" fill="#866dba" stroke="#866dba"/><path d="M1378,201L1345,284L1397,272Z" fill="#836ab9" stroke="#836ab9"/><path d="M1378,201L1397,272L1415,182Z" fill="#886fba" stroke="#886fba"/><path d="M1415,182L1397,272L1408,339Z" fill="#7f67b7" stroke="#7f67b7"/><path d="M1415,182L1408,339L1429,493Z" fill="#7159b2" stroke="#7159b2"/><path d="M-4,245L-5,306L4,287Z" fill="#dfdcf6" stroke="#dfdcf6"/><path d="M4,287L-5,306L59,345Z" fill="#d8d5f3" stroke="#d8d5f3"/><path d="M4,287L59,345L97,278Z" fill="#d8d5f3" stroke="#d8d5f3"/><path d="M97,278L59,345L90,358Z" fill="#d2cff1" stroke="#d2cff1"/><path d="M97,278L90,358L138,306Z" fill="#d3d0f0" stroke="#d3d0f0"/><path d="M97,278L138,306L158,276Z" fill="#d6d3f1" stroke="#d6d3f1"/><path d="M158,276L138,306L213,303Z" fill="#d2cfef" stroke="#d2cfef"/><path d="M158,276L213,303L212,262Z" fill="#d4d1ef" stroke="#d4d1ef"/><path d="M212,262L213,303L285,254Z" fill="#d2d0ee" stroke="#d2d0ee"/><path d="M285,254L213,303L246,335Z" fill="#cdcbed" stroke="#cdcbed"/><path d="M285,254L246,335L340,308Z" fill="#cbc8ec" stroke="#cbc8ec"/><path d="M285,254L340,308L340,255Z" fill="#cecbec" stroke="#cecbec"/><path d="M340,255L340,308L375,278Z" fill="#cac8ea" stroke="#cac8ea"/><path d="M375,278L340,308L414,330Z" fill="#c5c2e8" stroke="#c5c2e8"/><path d="M375,278L414,330L435,304Z" fill="#c3bfe7" stroke="#c3bfe7"/><path d="M461,300L435,304L481,346Z" fill="#bdbae5" stroke="#bdbae5"/><path d="M461,300L481,346L493,266Z" fill="#bebae4" stroke="#bebae4"/><path d="M493,266L481,346L542,345Z" fill="#bab6e3" stroke="#bab6e3"/><path d="M493,266L542,345L576,262Z" fill="#bcb9e3" stroke="#bcb9e3"/><path d="M576,262L542,345L621,304Z" fill="#b7b4e0" stroke="#b7b4e0"/><path d="M576,262L621,304L636,289Z" fill="#b8b5e0" stroke="#b8b5e0"/><path d="M576,262L636,289L661,258Z" fill="#bab6e0" stroke="#bab6e0"/><path d="M636,289L621,304L712,300Z" fill="#b3b0de" stroke="#b3b0de"/><path d="M636,289L712,300L661,258Z" fill="#b5b1de" stroke="#b5b1de"/><path d="M661,258L712,300L734,298Z" fill="#b2addc" stroke="#b2addc"/><path d="M734,298L712,300L769,335Z" fill="#aba5d9" stroke="#aba5d9"/><path d="M734,298L769,335L808,278Z" fill="#a9a3d7" stroke="#a9a3d7"/><path d="M808,278L769,335L789,354Z" fill="#a59dd5" stroke="#a59dd5"/><path d="M808,278L789,354L859,313Z" fill="#a49cd4" stroke="#a49cd4"/><path d="M898,272L859,313L909,352Z" fill="#9f95d1" stroke="#9f95d1"/><path d="M898,272L909,352L958,288Z" fill="#9e92cf" stroke="#9e92cf"/><path d="M958,288L909,352L975,368Z" fill="#9689cb" stroke="#9689cb"/><path d="M958,288L975,368L976,293Z" fill="#988bcc" stroke="#988bcc"/><path d="M976,293L975,368L1005,337Z" fill="#9486ca" stroke="#9486ca"/><path d="M976,293L1005,337L1058,329Z" fill="#9486ca" stroke="#9486ca"/><path d="M976,293L1058,329L1079,298Z" fill="#9485c9" stroke="#9485c9"/><path d="M1079,298L1058,329L1124,324Z" fill="#8f7ec6" stroke="#8f7ec6"/><path d="M1079,298L1124,324L1110,290Z" fill="#907ec5" stroke="#907ec5"/><path d="M1110,290L1124,324L1176,301Z" fill="#8d7bc3" stroke="#8d7bc3"/><path d="M1110,290L1176,301L1173,269Z" fill="#8f7cc4" stroke="#8f7cc4"/><path d="M1173,269L1176,301L1252,279Z" fill="#8c78c1" stroke="#8c78c1"/><path d="M1252,279L1176,301L1252,321Z" fill="#8772be" stroke="#8772be"/><path d="M1252,279L1252,321L1311,273Z" fill="#856fbc" stroke="#856fbc"/><path d="M1311,273L1252,321L1279,355Z" fill="#8069bb" stroke="#8069bb"/><path d="M1311,273L1279,355L1359,337Z" fill="#7c64b9" stroke="#7c64b9"/><path d="M1311,273L1359,337L1345,284Z" fill="#7f66b9" stroke="#7f66b9"/><path d="M1345,284L1359,337L1397,272Z" fill="#7c63b7" stroke="#7c63b7"/><path d="M1397,272L1359,337L1408,339Z" fill="#785eb5" stroke="#785eb5"/><path d="M-5,306L-44,445L-3,406Z" fill="#cdc5eb" stroke="#cdc5eb"/><path d="M-5,306L-3,406L47,386Z" fill="#cfc8ed" stroke="#cfc8ed"/><path d="M-5,306L47,386L59,345Z" fill="#d1cdef" stroke="#d1cdef"/><path d="M59,345L47,386L86,382Z" fill="#cbc4eb" stroke="#cbc4eb"/><path d="M59,345L86,382L90,358Z" fill="#ccc6ec" stroke="#ccc6ec"/><path d="M90,358L86,382L169,371Z" fill="#c8c2ea" stroke="#c8c2ea"/><path d="M90,358L169,371L138,306Z" fill="#ccc7ed" stroke="#ccc7ed"/><path d="M138,306L169,371L213,303Z" fill="#cdcaee" stroke="#cdcaee"/><path d="M213,303L169,371L246,335Z" fill="#c9c5eb" stroke="#c9c5eb"/><path d="M246,335L169,371L220,415Z" fill="#c2bbe6" stroke="#c2bbe6"/><path d="M246,335L220,415L271,383Z" fill="#bfb8e5" stroke="#bfb8e5"/><path d="M246,335L271,383L332,361Z" fill="#c0bbe6" stroke="#c0bbe6"/><path d="M246,335L332,361L340,308Z" fill="#c4c0e8" stroke="#c4c0e8"/><path d="M340,308L332,361L374,381Z" fill="#beb9e5" stroke="#beb9e5"/><path d="M340,308L374,381L414,330Z" fill="#bfbae5" stroke="#bfbae5"/><path d="M414,330L374,381L445,387Z" fill="#b7b1e0" stroke="#b7b1e0"/><path d="M414,330L445,387L481,346Z" fill="#b7b1e1" stroke="#b7b1e1"/><path d="M414,330L481,346L435,304Z" fill="#bdb9e5" stroke="#bdb9e5"/><path d="M481,346L445,387L522,392Z" fill="#b1a9dc" stroke="#b1a9dc"/><path d="M481,346L522,392L542,345Z" fill="#b1abdd" stroke="#b1abdd"/><path d="M542,345L522,392L594,385Z" fill="#aca5da" stroke="#aca5da"/><path d="M542,345L594,385L616,373Z" fill="#aba4d9" stroke="#aba4d9"/><path d="M542,345L616,373L621,304Z" fill="#b0abdd" stroke="#b0abdd"/><path d="M621,304L616,373L712,300Z" fill="#afabdd" stroke="#afabdd"/><path d="M712,300L616,373L709,400Z" fill="#a7a0d7" stroke="#a7a0d7"/><path d="M712,300L709,400L735,397Z" fill="#a299d4" stroke="#a299d4"/><path d="M712,300L735,397L769,335Z" fill="#a59dd6" stroke="#a59dd6"/><path d="M769,335L735,397L789,354Z" fill="#9f96d2" stroke="#9f96d2"/><path d="M789,354L735,397L816,379Z" fill="#9c90cf" stroke="#9c90cf"/><path d="M789,354L816,379L859,313Z" fill="#9d93d1" stroke="#9d93d1"/><path d="M859,313L816,379L874,383Z" fill="#998dce" stroke="#998dce"/><path d="M859,313L874,383L909,352Z" fill="#998ccd" stroke="#998ccd"/><path d="M909,352L874,383L920,395Z" fill="#9283c8" stroke="#9283c8"/><path d="M909,352L920,395L975,368Z" fill="#9081c7" stroke="#9081c7"/><path d="M1005,337L975,368L1072,364Z" fill="#8d7cc4" stroke="#8d7cc4"/><path d="M1005,337L1072,364L1058,329Z" fill="#8d7cc5" stroke="#8d7cc5"/><path d="M1058,329L1072,364L1124,324Z" fill="#8b79c3" stroke="#8b79c3"/><path d="M1124,324L1072,364L1128,362Z" fill="#8774c0" stroke="#8774c0"/><path d="M1124,324L1128,362L1176,301Z" fill="#8976c2" stroke="#8976c2"/><path d="M1176,301L1128,362L1199,390Z" fill="#826dbd" stroke="#826dbd"/><path d="M1176,301L1199,390L1244,372Z" fill="#7f68bb" stroke="#7f68bb"/><path d="M1176,301L1244,372L1252,321Z" fill="#826cbd" stroke="#826cbd"/><path d="M1252,321L1244,372L1279,355Z" fill="#7c64b8" stroke="#7c64b8"/><path d="M1279,355L1244,372L1280,379Z" fill="#785eb5" stroke="#785eb5"/><path d="M1279,355L1280,379L1359,337Z" fill="#775cb5" stroke="#775cb5"/><path d="M1359,337L1280,379L1363,415Z" fill="#7054b1" stroke="#7054b1"/><path d="M1359,337L1363,415L1408,339Z" fill="#7053b0" stroke="#7053b0"/><path d="M1408,339L1363,415L1405,419Z" fill="#694bab" stroke="#694bab"/><path d="M1408,339L1405,419L1429,493Z" fill="#6344a7" stroke="#6344a7"/><path d="M-3,406L-44,445L28,458Z" fill="#c3b7e4" stroke="#c3b7e4"/><path d="M-3,406L28,458L47,386Z" fill="#c4bae6" stroke="#c4bae6"/><path d="M47,386L28,458L86,382Z" fill="#c4bbe6" stroke="#c4bbe6"/><path d="M86,382L28,458L61,486Z" fill="#beb1e1" stroke="#beb1e1"/><path d="M86,382L61,486L117,479Z" fill="#bbaee0" stroke="#bbaee0"/><path d="M86,382L117,479L178,453Z" fill="#baaee0" stroke="#baaee0"/><path d="M86,382L178,453L169,371Z" fill="#c0b7e4" stroke="#c0b7e4"/><path d="M169,371L178,453L220,415Z" fill="#bcb2e1" stroke="#bcb2e1"/><path d="M220,415L178,453L191,453Z" fill="#b6aadd" stroke="#b6aadd"/><path d="M220,415L191,453L264,476Z" fill="#b3a6db" stroke="#b3a6db"/><path d="M220,415L264,476L271,383Z" fill="#b6abde" stroke="#b6abde"/><path d="M271,383L264,476L322,445Z" fill="#b2a6db" stroke="#b2a6db"/><path d="M271,383L322,445L332,361Z" fill="#b8afe0" stroke="#b8afe0"/><path d="M332,361L322,445L374,381Z" fill="#b6addf" stroke="#b6addf"/><path d="M374,381L322,445L373,455Z" fill="#afa4da" stroke="#afa4da"/><path d="M374,381L373,455L423,461Z" fill="#aca0d8" stroke="#aca0d8"/><path d="M374,381L423,461L445,387Z" fill="#afa4da" stroke="#afa4da"/><path d="M445,387L423,461L501,424Z" fill="#a99ed7" stroke="#a99ed7"/><path d="M445,387L501,424L522,392Z" fill="#aba2d8" stroke="#aba2d8"/><path d="M522,392L501,424L557,449Z" fill="#a59ad4" stroke="#a59ad4"/><path d="M522,392L557,449L594,385Z" fill="#a59bd5" stroke="#a59bd5"/><path d="M594,385L557,449L628,421Z" fill="#a196d2" stroke="#a196d2"/><path d="M594,385L628,421L616,373Z" fill="#a49cd5" stroke="#a49cd5"/><path d="M616,373L628,421L709,400Z" fill="#a197d3" stroke="#a197d3"/><path d="M709,400L628,421L662,457Z" fill="#9b8fce" stroke="#9b8fce"/><path d="M709,400L662,457L747,472Z" fill="#9486ca" stroke="#9486ca"/><path d="M709,400L747,472L735,397Z" fill="#9689cb" stroke="#9689cb"/><path d="M735,397L747,472L801,443Z" fill="#9182c8" stroke="#9182c8"/><path d="M735,397L801,443L816,379Z" fill="#9587cb" stroke="#9587cb"/><path d="M816,379L801,443L859,453Z" fill="#8f7ec5" stroke="#8f7ec5"/><path d="M816,379L859,453L874,383Z" fill="#9181c7" stroke="#9181c7"/><path d="M874,383L859,453L920,395Z" fill="#8d7cc5" stroke="#8d7cc5"/><path d="M920,395L859,453L933,431Z" fill="#8975c1" stroke="#8975c1"/><path d="M920,395L933,431L975,368Z" fill="#8b79c3" stroke="#8b79c3"/><path d="M975,368L933,431L994,451Z" fill="#8571bf" stroke="#8571bf"/><path d="M975,368L994,451L1066,428Z" fill="#826cbd" stroke="#826cbd"/><path d="M975,368L1066,428L1072,364Z" fill="#8671bf" stroke="#8671bf"/><path d="M1072,364L1066,428L1128,362Z" fill="#826cbd" stroke="#826cbd"/><path d="M1128,362L1066,428L1124,453Z" fill="#7b63b8" stroke="#7b63b8"/><path d="M1128,362L1124,453L1177,431Z" fill="#785eb6" stroke="#785eb6"/><path d="M1128,362L1177,431L1199,390Z" fill="#7a61b7" stroke="#7a61b7"/><path d="M1199,390L1177,431L1215,453Z" fill="#7256b2" stroke="#7256b2"/><path d="M1199,390L1215,453L1244,372Z" fill="#7459b3" stroke="#7459b3"/><path d="M1244,372L1215,453L1280,379Z" fill="#7357b2" stroke="#7357b2"/><path d="M1280,379L1215,453L1316,447Z" fill="#6c4dad" stroke="#6c4dad"/><path d="M1280,379L1316,447L1363,415Z" fill="#6b4bac" stroke="#6b4bac"/><path d="M1363,415L1316,447L1366,448Z" fill="#6442a7" stroke="#6442a7"/><path d="M1363,415L1366,448L1405,419Z" fill="#6442a7" stroke="#6442a7"/><path d="M1405,419L1366,448L1395,476Z" fill="#5f3ba4" stroke="#5f3ba4"/><path d="M1405,419L1395,476L1429,493Z" fill="#5b37a0" stroke="#5b37a0"/><path d="M-44,445L-46,689L-37,564Z" fill="#ac96d4" stroke="#ac96d4"/><path d="M-44,445L-37,564L-4,515Z" fill="#b6a4db" stroke="#b6a4db"/><path d="M-44,445L-4,515L19,495Z" fill="#b9aade" stroke="#b9aade"/><path d="M-44,445L19,495L28,458Z" fill="#bcaee0" stroke="#bcaee0"/><path d="M28,458L19,495L61,486Z" fill="#b8a9dd" stroke="#b8a9dd"/><path d="M117,479L61,486L82,572Z" fill="#af9dd7" stroke="#af9dd7"/><path d="M117,479L82,572L121,571Z" fill="#a894d2" stroke="#a894d2"/><path d="M117,479L121,571L154,525Z" fill="#aa97d4" stroke="#aa97d4"/><path d="M117,479L154,525L178,453Z" fill="#b0a0d9" stroke="#b0a0d9"/><path d="M178,453L154,525L191,453Z" fill="#b0a1d9" stroke="#b0a1d9"/><path d="M191,453L154,525L230,513Z" fill="#ac9bd6" stroke="#ac9bd6"/><path d="M191,453L230,513L264,476Z" fill="#ad9dd7" stroke="#ad9dd7"/><path d="M264,476L230,513L294,513Z" fill="#a796d3" stroke="#a796d3"/><path d="M264,476L294,513L331,496Z" fill="#a695d3" stroke="#a695d3"/><path d="M264,476L331,496L322,445Z" fill="#aa9bd5" stroke="#aa9bd5"/><path d="M322,445L331,496L373,455Z" fill="#a99ad5" stroke="#a99ad5"/><path d="M373,455L331,496L404,530Z" fill="#a291d1" stroke="#a291d1"/><path d="M373,455L404,530L423,461Z" fill="#a292d1" stroke="#a292d1"/><path d="M423,461L404,530L434,512Z" fill="#9d8bcd" stroke="#9d8bcd"/><path d="M423,461L434,512L501,424Z" fill="#a293d1" stroke="#a293d1"/><path d="M501,424L434,512L524,527Z" fill="#9b8acd" stroke="#9b8acd"/><path d="M501,424L524,527L557,449Z" fill="#9c8ece" stroke="#9c8ece"/><path d="M557,449L524,527L594,482Z" fill="#9786ca" stroke="#9786ca"/><path d="M557,449L594,482L628,421Z" fill="#9b8dcd" stroke="#9b8dcd"/><path d="M628,421L594,482L662,457Z" fill="#988acc" stroke="#988acc"/><path d="M662,457L594,482L656,487Z" fill="#9383c9" stroke="#9383c9"/><path d="M662,457L656,487L747,472Z" fill="#9080c6" stroke="#9080c6"/><path d="M747,472L656,487L718,539Z" fill="#8a77c2" stroke="#8a77c2"/><path d="M747,472L718,539L769,516Z" fill="#8570be" stroke="#8570be"/><path d="M747,472L769,516L801,443Z" fill="#8976c1" stroke="#8976c1"/><path d="M801,443L769,516L835,520Z" fill="#836ebe" stroke="#836ebe"/><path d="M801,443L835,520L859,453Z" fill="#8571bf" stroke="#8571bf"/><path d="M859,453L835,520L886,526Z" fill="#7e66ba" stroke="#7e66ba"/><path d="M859,453L886,526L928,525Z" fill="#7b62b7" stroke="#7b62b7"/><path d="M859,453L928,525L933,431Z" fill="#8069bb" stroke="#8069bb"/><path d="M933,431L928,525L994,451Z" fill="#7c64b9" stroke="#7c64b9"/><path d="M994,451L928,525L994,508Z" fill="#765cb4" stroke="#765cb4"/><path d="M994,451L994,508L1045,504Z" fill="#7459b3" stroke="#7459b3"/><path d="M994,451L1045,504L1066,428Z" fill="#775eb5" stroke="#775eb5"/><path d="M1066,428L1045,504L1124,453Z" fill="#7459b3" stroke="#7459b3"/><path d="M1124,453L1045,504L1124,533Z" fill="#6c4dad" stroke="#6c4dad"/><path d="M1124,453L1124,533L1186,491Z" fill="#6949ab" stroke="#6949ab"/><path d="M1124,453L1186,491L1177,431Z" fill="#6e50ae" stroke="#6e50ae"/><path d="M1177,431L1186,491L1215,453Z" fill="#6c4dad" stroke="#6c4dad"/><path d="M1215,453L1186,491L1216,519Z" fill="#6544a8" stroke="#6544a8"/><path d="M1215,453L1216,519L1275,532Z" fill="#613da4" stroke="#613da4"/><path d="M1215,453L1275,532L1316,447Z" fill="#6240a6" stroke="#6240a6"/><path d="M1316,447L1275,532L1330,497Z" fill="#5d38a2" stroke="#5d38a2"/><path d="M1316,447L1330,497L1366,448Z" fill="#603ca4" stroke="#603ca4"/><path d="M1366,448L1330,497L1395,476Z" fill="#5c37a1" stroke="#5c37a1"/><path d="M1395,476L1330,497L1414,544Z" fill="#542c9c" stroke="#542c9c"/><path d="M1395,476L1414,544L1429,493Z" fill="#522c9b" stroke="#522c9b"/><path d="M-4,515L-37,564L52,551Z" fill="#ae99d5" stroke="#ae99d5"/><path d="M-4,515L52,551L19,495Z" fill="#b19ed8" stroke="#b19ed8"/><path d="M19,495L52,551L61,486Z" fill="#b1a0d8" stroke="#b1a0d8"/><path d="M61,486L52,551L82,572Z" fill="#ab97d4" stroke="#ab97d4"/><path d="M154,525L121,571L209,582Z" fill="#a18cce" stroke="#a18cce"/><path d="M154,525L209,582L230,513Z" fill="#a38fd0" stroke="#a38fd0"/><path d="M230,513L209,582L287,589Z" fill="#9c86cb" stroke="#9c86cb"/><path d="M230,513L287,589L294,513Z" fill="#9f8bcd" stroke="#9f8bcd"/><path d="M294,513L287,589L324,577Z" fill="#9983c9" stroke="#9983c9"/><path d="M294,513L324,577L331,496Z" fill="#9e8bcd" stroke="#9e8bcd"/><path d="M331,496L324,577L404,530Z" fill="#9b87cb" stroke="#9b87cb"/><path d="M404,530L324,577L397,577Z" fill="#947ec7" stroke="#947ec7"/><path d="M404,530L397,577L459,550Z" fill="#937dc6" stroke="#937dc6"/><path d="M404,530L459,550L434,512Z" fill="#9683c9" stroke="#9683c9"/><path d="M434,512L459,550L507,547Z" fill="#937fc7" stroke="#937fc7"/><path d="M434,512L507,547L524,527Z" fill="#937fc7" stroke="#937fc7"/><path d="M524,527L507,547L551,591Z" fill="#8c76c2" stroke="#8c76c2"/><path d="M524,527L551,591L594,482Z" fill="#8e79c4" stroke="#8e79c4"/><path d="M594,482L551,591L643,591Z" fill="#8771bf" stroke="#8771bf"/><path d="M594,482L643,591L656,487Z" fill="#8b78c2" stroke="#8b78c2"/><path d="M656,487L643,591L718,539Z" fill="#8570be" stroke="#8570be"/><path d="M718,539L643,591L699,592Z" fill="#7d65b9" stroke="#7d65b9"/><path d="M718,539L699,592L743,556Z" fill="#7d64b9" stroke="#7d64b9"/><path d="M718,539L743,556L769,516Z" fill="#7f69bb" stroke="#7f69bb"/><path d="M769,516L743,556L793,547Z" fill="#7d65b9" stroke="#7d65b9"/><path d="M769,516L793,547L835,520Z" fill="#7d65b9" stroke="#7d65b9"/><path d="M835,520L793,547L890,552Z" fill="#785db5" stroke="#785db5"/><path d="M835,520L890,552L886,526Z" fill="#775cb5" stroke="#775cb5"/><path d="M886,526L890,552L928,525Z" fill="#7458b2" stroke="#7458b2"/><path d="M928,525L890,552L907,585Z" fill="#7052af" stroke="#7052af"/><path d="M928,525L907,585L989,590Z" fill="#6b4bac" stroke="#6b4bac"/><path d="M928,525L989,590L994,508Z" fill="#6d4fae" stroke="#6d4fae"/><path d="M994,508L989,590L1045,586Z" fill="#6645a9" stroke="#6645a9"/><path d="M994,508L1045,586L1045,504Z" fill="#6a4bac" stroke="#6a4bac"/><path d="M1045,504L1045,586L1092,584Z" fill="#6340a7" stroke="#6340a7"/><path d="M1045,504L1092,584L1124,533Z" fill="#6443a8" stroke="#6443a8"/><path d="M1124,533L1092,584L1173,594Z" fill="#5c36a1" stroke="#5c36a1"/><path d="M1124,533L1173,594L1216,519Z" fill="#5c37a2" stroke="#5c37a2"/><path d="M1124,533L1216,519L1186,491Z" fill="#6340a6" stroke="#6340a6"/><path d="M1216,519L1173,594L1233,580Z" fill="#572f9e" stroke="#572f9e"/><path d="M1216,519L1233,580L1275,532Z" fill="#58319f" stroke="#58319f"/><path d="M1275,532L1233,580L1270,575Z" fill="#532a9b" stroke="#532a9b"/><path d="M1275,532L1270,575L1361,609Z" fill="#4e2397" stroke="#4e2397"/><path d="M1275,532L1361,609L1375,596Z" fill="#4a1d94" stroke="#4a1d94"/><path d="M1275,532L1375,596L1330,497Z" fill="#52289a" stroke="#52289a"/><path d="M1330,497L1375,596L1414,544Z" fill="#4d2297" stroke="#4d2297"/><path d="M1429,493L1414,544L1416,687Z" fill="#441990" stroke="#441990"/><path d="M-37,564L-46,689L-32,641Z" fill="#9f84ca" stroke="#9f84ca"/><path d="M-37,564L-32,641L4,622Z" fill="#a389cd" stroke="#a389cd"/><path d="M-37,564L4,622L52,551Z" fill="#a68fd0" stroke="#a68fd0"/><path d="M52,551L4,622L80,617Z" fill="#a188cc" stroke="#a188cc"/><path d="M52,551L80,617L82,572Z" fill="#a38bce" stroke="#a38bce"/><path d="M82,572L80,617L121,571Z" fill="#a088cc" stroke="#a088cc"/><path d="M121,571L80,617L130,611Z" fill="#9d84ca" stroke="#9d84ca"/><path d="M121,571L130,611L209,582Z" fill="#9c84ca" stroke="#9c84ca"/><path d="M209,582L130,611L192,639Z" fill="#977dc6" stroke="#977dc6"/><path d="M209,582L192,639L275,612Z" fill="#947ac5" stroke="#947ac5"/><path d="M209,582L275,612L287,589Z" fill="#957dc6" stroke="#957dc6"/><path d="M287,589L275,612L346,615Z" fill="#9077c3" stroke="#9077c3"/><path d="M287,589L346,615L324,577Z" fill="#9279c4" stroke="#9279c4"/><path d="M324,577L346,615L397,577Z" fill="#9078c4" stroke="#9078c4"/><path d="M397,577L346,615L418,652Z" fill="#896fbf" stroke="#896fbf"/><path d="M397,577L418,652L461,642Z" fill="#856abc" stroke="#856abc"/><path d="M397,577L461,642L459,550Z" fill="#8a72c0" stroke="#8a72c0"/><path d="M459,550L461,642L494,616Z" fill="#866cbd" stroke="#866cbd"/><path d="M459,550L494,616L507,547Z" fill="#8b74c1" stroke="#8b74c1"/><path d="M507,547L494,616L551,591Z" fill="#866ebe" stroke="#866ebe"/><path d="M551,591L494,616L553,639Z" fill="#8065b9" stroke="#8065b9"/><path d="M551,591L553,639L632,625Z" fill="#7c61b7" stroke="#7c61b7"/><path d="M551,591L632,625L643,591Z" fill="#7d63b8" stroke="#7d63b8"/><path d="M643,591L632,625L685,616Z" fill="#785eb5" stroke="#785eb5"/><path d="M643,591L685,616L699,592Z" fill="#795fb6" stroke="#795fb6"/><path d="M699,592L685,616L752,651Z" fill="#7256b1" stroke="#7256b1"/><path d="M699,592L752,651L743,556Z" fill="#7559b3" stroke="#7559b3"/><path d="M743,556L752,651L796,632Z" fill="#6f52af" stroke="#6f52af"/><path d="M743,556L796,632L793,547Z" fill="#755ab3" stroke="#755ab3"/><path d="M793,547L796,632L840,648Z" fill="#6d4ead" stroke="#6d4ead"/><path d="M793,547L840,648L890,552Z" fill="#6f52af" stroke="#6f52af"/><path d="M890,552L840,648L907,585Z" fill="#6a4aab" stroke="#6a4aab"/><path d="M907,585L840,648L934,613Z" fill="#6543a8" stroke="#6543a8"/><path d="M907,585L934,613L989,590Z" fill="#6543a8" stroke="#6543a8"/><path d="M989,590L934,613L999,607Z" fill="#613ea5" stroke="#613ea5"/><path d="M989,590L999,607L1045,586Z" fill="#603ca4" stroke="#603ca4"/><path d="M1045,586L999,607L1030,635Z" fill="#5c37a2" stroke="#5c37a2"/><path d="M1045,586L1030,635L1092,584Z" fill="#5b35a1" stroke="#5b35a1"/><path d="M1092,584L1030,635L1101,674Z" fill="#542b9c" stroke="#542b9c"/><path d="M1092,584L1101,674L1138,627Z" fill="#52289a" stroke="#52289a"/><path d="M1092,584L1138,627L1173,594Z" fill="#552d9d" stroke="#552d9d"/><path d="M1173,594L1138,627L1151,626Z" fill="#512799" stroke="#512799"/><path d="M1173,594L1151,626L1162,667Z" fill="#4e2297" stroke="#4e2297"/><path d="M1173,594L1162,667L1223,681Z" fill="#481b93" stroke="#481b93"/><path d="M1173,594L1223,681L1258,615Z" fill="#491c94" stroke="#491c94"/><path d="M1173,594L1258,615L1233,580Z" fill="#502598" stroke="#502598"/><path d="M1233,580L1258,615L1270,575Z" fill="#4e2397" stroke="#4e2397"/><path d="M1270,575L1258,615L1361,609Z" fill="#491c94" stroke="#491c94"/><path d="M1375,596L1361,609L1382,632Z" fill="#41108e" stroke="#41108e"/><path d="M1375,596L1382,632L1414,544Z" fill="#441590" stroke="#441590"/><path d="M1414,544L1382,632L1416,687Z" fill="#3d0c8b" stroke="#3d0c8b"/><path d="M-32,641L-46,689L21,686Z" fill="#9679c4" stroke="#9679c4"/><path d="M-32,641L21,686L4,622Z" fill="#9a7dc6" stroke="#9a7dc6"/><path d="M4,622L21,686L80,617Z" fill="#997dc7" stroke="#997dc7"/><path d="M80,617L21,686L113,661Z" fill="#9577c4" stroke="#9577c4"/><path d="M80,617L113,661L130,611Z" fill="#977cc6" stroke="#977cc6"/><path d="M130,611L113,661L192,639Z" fill="#9378c4" stroke="#9378c4"/><path d="M192,639L113,661L143,715Z" fill="#8d70bf" stroke="#8d70bf"/><path d="M192,639L143,715L229,676Z" fill="#896dbd" stroke="#896dbd"/><path d="M192,639L229,676L275,612Z" fill="#8d71c0" stroke="#8d71c0"/><path d="M275,612L229,676L272,684Z" fill="#896cbd" stroke="#896cbd"/><path d="M275,612L272,684L346,615Z" fill="#8b6fbf" stroke="#8b6fbf"/><path d="M346,615L272,684L356,674Z" fill="#8567bb" stroke="#8567bb"/><path d="M346,615L356,674L418,652Z" fill="#8467bb" stroke="#8467bb"/><path d="M418,652L356,674L415,665Z" fill="#7f61b7" stroke="#7f61b7"/><path d="M418,652L415,665L461,642Z" fill="#7f62b8" stroke="#7f62b8"/><path d="M461,642L415,665L473,702Z" fill="#7b5db5" stroke="#7b5db5"/><path d="M461,642L473,702L546,687Z" fill="#765ab2" stroke="#765ab2"/><path d="M461,642L546,687L494,616Z" fill="#7b5eb6" stroke="#7b5eb6"/><path d="M494,616L546,687L553,639Z" fill="#795cb5" stroke="#795cb5"/><path d="M553,639L546,687L608,674Z" fill="#7355b1" stroke="#7355b1"/><path d="M553,639L608,674L632,625Z" fill="#7558b2" stroke="#7558b2"/><path d="M632,625L608,674L692,704Z" fill="#6e4fad" stroke="#6e4fad"/><path d="M632,625L692,704L685,616Z" fill="#7052af" stroke="#7052af"/><path d="M685,616L692,704L752,651Z" fill="#6c4cac" stroke="#6c4cac"/><path d="M752,651L692,704L754,691Z" fill="#6547a7" stroke="#6547a7"/><path d="M752,651L754,691L784,682Z" fill="#6444a6" stroke="#6444a6"/><path d="M752,651L784,682L796,632Z" fill="#6645a9" stroke="#6645a9"/><path d="M796,632L784,682L840,648Z" fill="#6542a7" stroke="#6542a7"/><path d="M840,648L784,682L844,716Z" fill="#5e3da2" stroke="#5e3da2"/><path d="M840,648L844,716L949,697Z" fill="#59379f" stroke="#59379f"/><path d="M840,648L949,697L934,613Z" fill="#5d38a2" stroke="#5d38a2"/><path d="M934,613L949,697L973,700Z" fill="#562f9d" stroke="#562f9d"/><path d="M934,613L973,700L999,607Z" fill="#5b34a0" stroke="#5b34a0"/><path d="M999,607L973,700L1030,635Z" fill="#572f9d" stroke="#572f9d"/><path d="M1030,635L973,700L1061,702Z" fill="#4f2898" stroke="#4f2898"/><path d="M1030,635L1061,702L1101,674Z" fill="#4e2397" stroke="#4e2397"/><path d="M1138,627L1101,674L1162,667Z" fill="#4b1e95" stroke="#4b1e95"/><path d="M1138,627L1162,667L1151,626Z" fill="#4d2196" stroke="#4d2196"/><path d="M1258,615L1223,681L1267,647Z" fill="#431490" stroke="#431490"/><path d="M1258,615L1267,647L1361,609Z" fill="#441691" stroke="#441691"/><path d="M1267,647L1223,681L1262,690Z" fill="#3f0f8c" stroke="#3f0f8c"/><path d="M1267,647L1262,690L1332,703Z" fill="#3b0b89" stroke="#3b0b89"/><path d="M1267,647L1332,703L1361,609Z" fill="#3d0b8b" stroke="#3d0b8b"/><path d="M1361,609L1332,703L1382,632Z" fill="#3b088a" stroke="#3b088a"/><path d="M1382,632L1332,703L1416,687Z" fill="#350185" stroke="#350185"/><path d="M-46,689L143,715L21,686Z" fill="#8e76bf" stroke="#8e76bf"/><path d="M21,686L143,715L113,661Z" fill="#8d73be" stroke="#8d73be"/><path d="M143,715L844,716L527,713Z" fill="#6f59ac" stroke="#6f59ac"/><path d="M143,715L527,713L473,702Z" fill="#7862b2" stroke="#7862b2"/><path d="M143,715L473,702L272,684Z" fill="#7f67b6" stroke="#7f67b6"/><path d="M143,715L272,684L229,676Z" fill="#856cba" stroke="#856cba"/><path d="M272,684L473,702L356,674Z" fill="#7d63b6" stroke="#7d63b6"/><path d="M356,674L473,702L415,665Z" fill="#7b5fb5" stroke="#7b5fb5"/><path d="M473,702L527,713L546,687Z" fill="#7058ae" stroke="#7058ae"/><path d="M527,713L844,716L692,704Z" fill="#634ca6" stroke="#634ca6"/><path d="M527,713L692,704L608,674Z" fill="#6b52ab" stroke="#6b52ab"/><path d="M527,713L608,674L546,687Z" fill="#6f55ae" stroke="#6f55ae"/><path d="M692,704L844,716L754,691Z" fill="#5e44a2" stroke="#5e44a2"/><path d="M754,691L844,716L784,682Z" fill="#5e40a2" stroke="#5e40a2"/><path d="M844,716L1332,703L1061,702Z" fill="#462191" stroke="#462191"/><path d="M844,716L1061,702L973,700Z" fill="#4f2e98" stroke="#4f2e98"/><path d="M844,716L973,700L949,697Z" fill="#52329a" stroke="#52329a"/><path d="M1061,702L1332,703L1262,690Z" fill="#3c128a" stroke="#3c128a"/><path d="M1061,702L1262,690L1223,681Z" fill="#41168d" stroke="#41168d"/><path d="M1061,702L1223,681L1162,667Z" fill="#451a90" stroke="#451a90"/><path d="M1061,702L1162,667L1101,674Z" fill="#481e93" stroke="#481e93"/></g></svg>